<?xml version="1.0" encoding="UTF-8" standalone="no"?>
<!-- Created with Inkscape (http://www.inkscape.org/) -->

<svg
   width="500"
   height="500"
   viewBox="0 0 143.69769 143.69769"
   version="1.1"
   id="svg1"
   sodipodi:docname="debunkr_logo.svg"
   inkscape:version="1.3.2 (091e20e, 2023-11-25, custom)"
   xmlns:inkscape="http://www.inkscape.org/namespaces/inkscape"
   xmlns:sodipodi="http://sodipodi.sourceforge.net/DTD/sodipodi-0.dtd"
   xmlns="http://www.w3.org/2000/svg"
   xmlns:svg="http://www.w3.org/2000/svg">
  <sodipodi:namedview
     id="namedview1"
     pagecolor="#ffffff"
     bordercolor="#000000"
     borderopacity="0.25"
     inkscape:showpageshadow="2"
     inkscape:pageopacity="0.0"
     inkscape:pagecheckerboard="0"
     inkscape:deskcolor="#d1d1d1"
     inkscape:document-units="px"
     inkscape:zoom="1.0242632"
     inkscape:cx="129.36128"
     inkscape:cy="338.29195"
     inkscape:window-width="2560"
     inkscape:window-height="1009"
     inkscape:window-x="-8"
     inkscape:window-y="-8"
     inkscape:window-maximized="1"
     inkscape:current-layer="layer1" />
  <defs
     id="defs1" />
  <g
     inkscape:label="Layer 1"
     inkscape:groupmode="layer"
     id="layer1">
    <g
       id="text1-9"
       style="font-size:29.8891px;font-family:'Roboto Condensed';-inkscape-font-specification:'Roboto Condensed, ';letter-spacing:-0.810455px;stroke:#000000;stroke-width:0"
       aria-label="debunkr.org"
       transform="translate(-2.45e-6,-2.4803297)">
      <path
         style="letter-spacing:-0.629396px"
         d="m 6.1926549,71.338048 q 0,-3.648572 1.3572686,-5.560423 1.371863,-1.911852 3.9258635,-1.911852 2.262114,0 3.531817,1.83888 v -8.1728 h 2.583189 V 79.948677 H 15.226518 L 15.09517,78.25574 q -1.269703,1.984823 -3.633978,1.984823 -2.4518398,0 -3.8528913,-1.897257 -1.3864572,-1.911852 -1.4156458,-5.385292 z m 2.5831887,1.474023 q 0,2.65616 0.7880915,3.911269 0.7880919,1.240514 2.5685949,1.240514 1.926445,0 2.875074,-1.94104 v -7.968481 q -0.992411,-1.897257 -2.86048,-1.897257 -1.780503,0 -2.5685946,1.255109 -0.7880915,1.240514 -0.8026858,3.823703 z m 17.8031874,7.428492 q -2.948046,0 -4.524229,-1.751315 -1.576183,-1.765908 -1.605371,-5.166377 v -1.911852 q 0,-3.531817 1.5324,-5.531234 1.546994,-2.014012 4.305314,-2.014012 2.772915,0 4.144778,1.765909 1.371863,1.765909 1.401051,5.502046 v 1.692937 h -8.814949 v 0.364857 q 0,2.539406 0.948629,3.692355 0.963223,1.152949 2.75832,1.152949 1.138354,0 1.999417,-0.423235 0.875657,-0.437828 1.63456,-1.371863 l 1.342675,1.63456 q -1.678343,2.364275 -5.122595,2.364275 z M 26.287145,66.084105 q -1.605371,0 -2.378868,1.109166 -0.773498,1.094571 -0.875658,3.415063 h 6.217166 v -0.350263 q -0.10216,-2.24752 -0.81728,-3.210743 -0.700525,-0.963223 -2.14536,-0.963223 z m 19.452343,6.727966 q 0,3.692354 -1.32808,5.560423 -1.32808,1.868069 -3.852891,1.868069 -2.510218,0 -3.765326,-2.159955 l -0.131349,1.868069 h -2.34968 V 57.531853 h 2.568594 v 8.362526 q 1.269703,-2.028606 3.648572,-2.028606 2.597783,0 3.896675,1.83888 1.298891,1.83888 1.313485,5.545829 z m -2.568594,-1.474023 q 0,-2.802103 -0.788091,-3.98424 -0.773498,-1.196732 -2.524812,-1.196732 -1.999417,0 -2.977235,2.159955 v 7.516057 q 0.963223,2.130766 3.006424,2.130766 1.751314,0 2.510217,-1.22592 0.758903,-1.22592 0.773497,-3.809109 z m 13.293554,7.224172 q -1.284297,1.678343 -3.750732,1.678343 -2.14536,0 -3.239931,-1.474023 -1.094572,-1.488617 -1.109166,-4.319909 V 64.157659 h 2.568594 v 10.099246 q 0,3.692355 2.218332,3.692355 2.34968,0 3.239932,-2.101577 V 64.157659 h 2.583188 v 15.791018 h -2.45184 z m 8.200147,-14.404561 0.07297,1.707531 q 1.503212,-1.999417 3.838297,-1.999417 4.188561,0 4.246938,5.589612 V 79.948677 H 70.254206 V 69.572139 q 0,-1.853474 -0.627554,-2.626971 -0.61296,-0.788092 -1.853474,-0.788092 -0.963223,0 -1.73672,0.642149 -0.758903,0.642148 -1.225921,1.678343 V 79.948677 H 62.227349 V 64.157659 Z m 15.365942,8.566846 -1.371863,1.576183 v 5.647989 H 76.075485 V 57.531853 h 2.583189 v 13.412149 l 4.918274,-6.786343 h 3.093989 l -5.020435,6.596617 5.677178,9.194401 H 84.321257 Z M 95.42567,66.58031 q -0.539989,-0.10216 -1.167543,-0.10216 -1.984823,0 -2.772915,2.174549 V 79.948677 H 88.902024 V 64.157659 h 2.510217 l 0.04378,1.605371 q 1.036194,-1.897257 2.933451,-1.897257 0.612961,0 1.021601,0.20432 z"
         id="path3-8" />
      <path
         style="fill:#ff0000"
         d="m 97.54,78.533031 q 0,-0.700526 0.40864,-1.167543 0.423234,-0.467017 1.255109,-0.467017 0.831871,0 1.255111,0.467017 0.43783,0.467017 0.43783,1.167543 0,0.671337 -0.43783,1.12376 -0.42324,0.452423 -1.255111,0.452423 -0.831875,0 -1.255109,-0.452423 Q 97.54,79.204368 97.54,78.533031 Z"
         id="path4-8" />
      <path
         d="m 103.88074,71.323454 q 0,-3.444252 1.66375,-5.443669 1.67834,-2.014012 4.42207,-2.014012 2.74373,0 4.40747,1.955635 1.67835,1.955634 1.72213,5.326914 v 1.663749 q 0,3.429657 -1.66375,5.429075 -1.66375,1.999417 -4.43666,1.999417 -2.74373,0 -4.40748,-1.94104 -1.64915,-1.94104 -1.70753,-5.253944 z m 2.58319,1.488617 q 0,2.437246 0.94863,3.838297 0.96322,1.386458 2.58319,1.386458 3.41506,0 3.51722,-4.932869 v -1.780503 q 0,-2.422652 -0.96322,-3.823703 -0.96322,-1.415646 -2.58319,-1.415646 -1.59078,0 -2.554,1.415646 -0.94863,1.401051 -0.94863,3.809108 z m 18.67292,-6.231761 q -0.53999,-0.10216 -1.16754,-0.10216 -1.98482,0 -2.77292,2.174549 v 11.295978 h -2.58318 V 64.157659 h 2.51021 l 0.0438,1.605371 q 1.03619,-1.897257 2.93345,-1.897257 0.61296,0 1.0216,0.20432 z m 0.97005,4.757738 q 0,-3.692355 1.34267,-5.575018 1.34268,-1.897257 3.92587,-1.897257 2.40805,0 3.66316,2.057795 l 0.13135,-1.765909 h 2.33509 V 80.09462 q 0,2.933452 -1.50321,4.49504 -1.50322,1.576183 -4.18856,1.576183 -1.16755,0 -2.62698,-0.583771 -1.44483,-0.569177 -2.17455,-1.415646 l 1.05079,-1.780503 q 1.60537,1.576183 3.54642,1.576183 3.22533,0 3.3129,-3.517223 v -2.057795 q -1.25511,1.853475 -3.56101,1.853475 -2.45184,0 -3.8237,-1.83888 -1.37186,-1.853475 -1.43024,-5.312321 z m 2.58319,1.474023 q 0,2.65616 0.77349,3.911269 0.7881,1.240514 2.5686,1.240514 1.92645,0 2.88967,-1.970229 v -7.895509 q -1.00701,-1.94104 -2.86048,-1.94104 -1.78051,0 -2.5686,1.255109 -0.78809,1.240514 -0.80268,3.823703 z"
         id="path5-2" />
    </g>
    <path
       style="font-style:italic;font-size:16.8605px;font-family:'Roboto Condensed';-inkscape-font-specification:'Roboto Condensed,  Italic';letter-spacing:-0.629396px;fill:#515151;fill-opacity:1;stroke:#000000;stroke-width:0;stroke-opacity:1"
       d="m 43.695632,83.683665 q 1.226667,0.0329 1.827652,1.03731 l 0.856197,-4.61852 h 1.424252 l -2.18989,12.64537 h -1.292527 l 0.156419,-0.95499 q -0.880895,1.15258 -2.115795,1.11964 -1.11141,-0.0165 -1.720627,-0.86442 -0.600985,-0.84797 -0.600985,-2.42864 0,-0.73271 0.189352,-1.94291 0.189351,-1.2102 0.584519,-2.04993 0.938524,-2.00054 2.881433,-1.94291 z m -2.239285,6.28975 q 0.04116,1.6383 1.35839,1.663 0.469262,0.0165 0.89736,-0.23051 0.428099,-0.25521 0.86443,-0.86443 l 0.773871,-4.5115 q -0.411633,-1.02909 -1.374855,-1.07025 -1.951142,-0.0988 -2.354543,2.86497 -0.197584,1.44895 -0.164653,2.14872 z m 10.336515,2.77441 q -0.0494,-0.24698 -0.04116,-0.48573 l 0.03293,-0.48572 q -0.946757,1.14434 -2.041701,1.14434 -1.070247,0 -1.671232,-0.69155 -0.592752,-0.69977 -0.52689,-1.84411 0.09056,-1.38309 1.136108,-2.21459 1.053781,-0.8315 2.757943,-0.8315 h 0.98792 l 0.139955,-0.94676 q 0.148188,-1.47364 -1.11141,-1.47364 -0.650381,0 -1.086712,0.38693 -0.428098,0.37871 -0.543356,0.99615 l -1.407786,0.008 q 0.107025,-1.12787 1.020851,-1.89351 0.922058,-0.76564 2.165191,-0.74917 1.201969,0.0165 1.844117,0.74094 0.650381,0.71624 0.526891,2.00877 l -0.724475,4.38801 q -0.07409,0.46926 -0.05763,0.89736 l 0.0494,0.9056 -0.01647,0.13995 z m -1.753558,-1.14434 q 1.070247,0 1.844118,-1.04555 l 0.37047,-2.13226 -0.650381,-0.008 q -0.839732,0 -1.490113,0.31284 -0.65038,0.30461 -0.922058,0.8562 -0.263445,0.54336 -0.181119,1.1855 0.107025,0.8315 1.029083,0.8315 z m 9.118081,-1.20197 q 0.107025,-0.7821 -0.872663,-1.30076 l -1.103177,-0.57629 q -0.856197,-0.47749 -1.201969,-1.01261 -0.337539,-0.53513 -0.296376,-1.24314 0.06586,-1.12787 0.922059,-1.86881 0.856197,-0.74094 2.091097,-0.72448 1.193736,0.0329 1.868815,0.79034 0.675079,0.74917 0.625683,1.91821 h -1.407786 q 0.01647,-0.66685 -0.296376,-1.04555 -0.312842,-0.38693 -0.872663,-0.4034 -0.633915,0 -1.045549,0.36224 -0.411633,0.354 -0.49396,0.92206 -0.09879,0.66684 0.650381,1.09494 l 1.391321,0.70801 q 1.539508,0.8562 1.457182,2.27222 -0.08233,1.2102 -0.971455,1.93467 -0.889128,0.71625 -2.165191,0.68331 -1.226667,-0.0165 -1.992305,-0.79856 -0.765638,-0.79034 -0.716242,-2.03347 l 1.432484,0.008 q -0.01647,0.77387 0.337539,1.17727 0.354004,0.39517 1.004385,0.39517 0.683311,0 1.127875,-0.34578 0.452797,-0.34577 0.526891,-0.91382 z m 5.001747,-5.63937 q 0.996153,-1.11141 2.165191,-1.07848 0.856198,0.008 1.341925,0.56805 0.49396,0.55159 0.559821,1.54774 0.03293,0.56806 -0.0247,1.11141 l -0.971454,5.83696 h -1.416019 l 0.979687,-5.86166 0.03293,-0.65038 q 0,-1.2596 -1.037316,-1.28429 -0.847965,-0.0247 -1.580672,0.96322 l -0.24698,0.354 -1.119643,6.47911 h -1.424248 l 2.198122,-12.64537 h 1.424251 z m 8.163093,8.15033 q -1.366623,-0.0494 -1.934677,-1.22666 l -0.304608,1.06201 h -1.308994 l 2.198121,-12.64537 h 1.416019 l -0.897361,4.71731 q 0.880896,-1.17727 2.124028,-1.14434 1.160806,0.0165 1.745326,0.8562 0.592752,0.8315 0.559821,2.42864 -0.03293,0.88089 -0.197584,1.9676 -0.164653,1.08672 -0.485727,1.86059 -0.897361,2.18165 -2.914364,2.12402 z m 2.198122,-6.28975 q -0.04116,-0.86443 -0.378703,-1.2596 -0.337539,-0.39517 -0.979687,-0.41163 -1.045549,-0.0247 -1.835885,1.22666 l -0.724475,4.25629 q 0.386936,1.16081 1.432484,1.20197 0.963222,0.0412 1.547742,-0.67508 0.584519,-0.72447 0.765638,-2.28045 0.189351,-1.5642 0.172886,-2.05816 z m 2.350828,1.27606 q 0.271678,-1.91821 1.308994,-3.08725 1.045548,-1.17727 2.634453,-1.13611 0.98792,0.0247 1.646533,0.57629 0.658614,0.54336 0.938524,1.50658 0.288144,0.96322 0.156421,2.12403 l -0.09879,0.83973 q -0.271678,1.90998 -1.317227,3.07078 -1.045548,1.16081 -2.62622,1.11964 -0.98792,-0.0247 -1.646533,-0.56805 -0.658614,-0.54335 -0.946757,-1.50658 -0.279911,-0.96322 -0.148188,-2.11579 z m 1.276063,1.42425 q -0.0247,1.10318 0.337539,1.7124 0.37047,0.60921 1.11141,0.64215 0.95499,0.0412 1.580672,-0.67508 0.625683,-0.72448 0.839732,-2.16519 l 0.12349,-0.96323 0.04116,-0.59275 q 0.0247,-1.11141 -0.354005,-1.72063 -0.37047,-0.60921 -1.103177,-0.64214 -0.971455,-0.0412 -1.621836,0.8068 -0.642148,0.83973 -0.831499,2.33807 l -0.09879,0.81504 z m 10.369447,3.42479 q -0.0494,-0.24698 -0.04116,-0.48573 l 0.03293,-0.48572 q -0.946757,1.14434 -2.041701,1.14434 -1.070247,0 -1.671232,-0.69155 -0.592752,-0.69977 -0.52689,-1.84411 0.09056,-1.38309 1.136108,-2.21459 1.053781,-0.8315 2.757943,-0.8315 h 0.98792 l 0.139955,-0.94676 q 0.148188,-1.47364 -1.11141,-1.47364 -0.65038,0 -1.086712,0.38693 -0.428098,0.3787 -0.543356,0.99615 l -1.407786,0.008 q 0.107025,-1.12787 1.020851,-1.89351 0.922059,-0.76564 2.165191,-0.74917 1.201969,0.0165 1.844117,0.74094 0.650381,0.71624 0.526891,2.00877 l -0.724475,4.38801 q -0.07409,0.46926 -0.05763,0.89736 l 0.0494,0.90559 -0.01647,0.13996 z m -1.753557,-1.14434 q 1.070246,0 1.844117,-1.04555 l 0.37047,-2.13226 -0.650381,-0.008 q -0.839732,0 -1.490112,0.31284 -0.650381,0.30461 -0.922059,0.8562 -0.263445,0.54336 -0.181119,1.1855 0.107025,0.8315 1.029084,0.8315 z m 9.414456,-6.40501 q -0.354005,-0.0741 -0.633916,-0.0741 -1.078479,0 -1.778256,1.24313 l -1.103177,6.38032 h -1.424251 l 1.547741,-8.90775 1.374855,-0.008 -0.197584,0.91383 q 0.782104,-1.11141 1.761791,-1.08672 0.197584,0.008 0.609217,0.12349 z m 3.371672,-1.51481 q 1.226684,0.0329 1.827664,1.03731 l 0.85619,-4.61852 h 1.42425 l -2.18989,12.64537 h -1.29252 l 0.15642,-0.95499 q -0.880904,1.15258 -2.1158,1.11964 -1.11141,-0.0165 -1.720627,-0.86442 -0.600985,-0.84797 -0.600985,-2.42864 0,-0.73271 0.189352,-1.94291 0.189351,-1.2102 0.584519,-2.04993 0.938524,-2.00054 2.881427,-1.94291 z m -2.239279,6.28975 q 0.04116,1.6383 1.35839,1.663 0.469262,0.0165 0.897359,-0.23051 0.4281,-0.25521 0.864434,-0.86443 l 0.77387,-4.5115 q -0.41162,-1.02909 -1.374864,-1.07025 -1.951135,-0.0988 -2.354536,2.86497 -0.197584,1.44895 -0.164653,2.14872 z"
       id="text2"
       aria-label="dashboard" />
  </g>
</svg>
