<?xml version="1.0" encoding="UTF-8" standalone="no"?>
<!-- Created with Inkscape (http://www.inkscape.org/) -->

<svg
   width="500"
   height="125"
   viewBox="0 0 143.69769 35.924422"
   version="1.1"
   id="svg1"
   xmlns="http://www.w3.org/2000/svg"
   xmlns:svg="http://www.w3.org/2000/svg">
  <defs
     id="defs1" />
  <g
     id="layer1">
    <g
       id="text1"
       style="font-size:29.8891px;font-family:'Roboto Condensed';-inkscape-font-specification:'Roboto Condensed, ';letter-spacing:-0.810455px;stroke:#000000;stroke-width:0"
       aria-label="debunkr.org"
       transform="translate(-2.95e-6,-53.886637)">
      <path
         style="letter-spacing:-0.629396px"
         d="m 6.1926549,71.338048 q 0,-3.648572 1.3572686,-5.560423 1.371863,-1.911852 3.9258635,-1.911852 2.262114,0 3.531817,1.83888 v -8.1728 h 2.583189 V 79.948677 H 15.226518 L 15.09517,78.25574 q -1.269703,1.984823 -3.633978,1.984823 -2.4518398,0 -3.8528913,-1.897257 -1.3864572,-1.911852 -1.4156458,-5.385292 z m 2.5831887,1.474023 q 0,2.65616 0.7880915,3.911269 0.7880919,1.240514 2.5685949,1.240514 1.926445,0 2.875074,-1.94104 v -7.968481 q -0.992411,-1.897257 -2.86048,-1.897257 -1.780503,0 -2.5685946,1.255109 -0.7880915,1.240514 -0.8026858,3.823703 z m 17.8031874,7.428492 q -2.948046,0 -4.524229,-1.751315 -1.576183,-1.765908 -1.605371,-5.166377 v -1.911852 q 0,-3.531817 1.5324,-5.531234 1.546994,-2.014012 4.305314,-2.014012 2.772915,0 4.144778,1.765909 1.371863,1.765909 1.401051,5.502046 v 1.692937 h -8.814949 v 0.364857 q 0,2.539406 0.948629,3.692355 0.963223,1.152949 2.75832,1.152949 1.138354,0 1.999417,-0.423235 0.875657,-0.437828 1.63456,-1.371863 l 1.342675,1.63456 q -1.678343,2.364275 -5.122595,2.364275 z M 26.287145,66.084105 q -1.605371,0 -2.378868,1.109166 -0.773498,1.094571 -0.875658,3.415063 h 6.217166 v -0.350263 q -0.10216,-2.24752 -0.81728,-3.210743 -0.700525,-0.963223 -2.14536,-0.963223 z m 19.452343,6.727966 q 0,3.692354 -1.32808,5.560423 -1.32808,1.868069 -3.852891,1.868069 -2.510218,0 -3.765326,-2.159955 l -0.131349,1.868069 h -2.34968 V 57.531853 h 2.568594 v 8.362526 q 1.269703,-2.028606 3.648572,-2.028606 2.597783,0 3.896675,1.83888 1.298891,1.83888 1.313485,5.545829 z m -2.568594,-1.474023 q 0,-2.802103 -0.788091,-3.98424 -0.773498,-1.196732 -2.524812,-1.196732 -1.999417,0 -2.977235,2.159955 v 7.516057 q 0.963223,2.130766 3.006424,2.130766 1.751314,0 2.510217,-1.22592 0.758903,-1.22592 0.773497,-3.809109 z m 13.293554,7.224172 q -1.284297,1.678343 -3.750732,1.678343 -2.14536,0 -3.239931,-1.474023 -1.094572,-1.488617 -1.109166,-4.319909 V 64.157659 h 2.568594 v 10.099246 q 0,3.692355 2.218332,3.692355 2.34968,0 3.239932,-2.101577 V 64.157659 h 2.583188 v 15.791018 h -2.45184 z m 8.200147,-14.404561 0.07297,1.707531 q 1.503212,-1.999417 3.838297,-1.999417 4.188561,0 4.246938,5.589612 V 79.948677 H 70.254206 V 69.572139 q 0,-1.853474 -0.627554,-2.626971 -0.61296,-0.788092 -1.853474,-0.788092 -0.963223,0 -1.73672,0.642149 -0.758903,0.642148 -1.225921,1.678343 V 79.948677 H 62.227349 V 64.157659 Z m 15.365942,8.566846 -1.371863,1.576183 v 5.647989 H 76.075485 V 57.531853 h 2.583189 v 13.412149 l 4.918274,-6.786343 h 3.093989 l -5.020435,6.596617 5.677178,9.194401 H 84.321257 Z M 95.42567,66.58031 q -0.539989,-0.10216 -1.167543,-0.10216 -1.984823,0 -2.772915,2.174549 V 79.948677 H 88.902024 V 64.157659 h 2.510217 l 0.04378,1.605371 q 1.036194,-1.897257 2.933451,-1.897257 0.612961,0 1.021601,0.20432 z"
         id="path3" />
      <path
         style="fill:#ff0000"
         d="m 97.54,78.533031 q 0,-0.700526 0.40864,-1.167543 0.423234,-0.467017 1.255109,-0.467017 0.831871,0 1.255111,0.467017 0.43783,0.467017 0.43783,1.167543 0,0.671337 -0.43783,1.12376 -0.42324,0.452423 -1.255111,0.452423 -0.831875,0 -1.255109,-0.452423 Q 97.54,79.204368 97.54,78.533031 Z"
         id="path4" />
      <path
         d="m 103.88074,71.323454 q 0,-3.444252 1.66375,-5.443669 1.67834,-2.014012 4.42207,-2.014012 2.74373,0 4.40747,1.955635 1.67835,1.955634 1.72213,5.326914 v 1.663749 q 0,3.429657 -1.66375,5.429075 -1.66375,1.999417 -4.43666,1.999417 -2.74373,0 -4.40748,-1.94104 -1.64915,-1.94104 -1.70753,-5.253944 z m 2.58319,1.488617 q 0,2.437246 0.94863,3.838297 0.96322,1.386458 2.58319,1.386458 3.41506,0 3.51722,-4.932869 v -1.780503 q 0,-2.422652 -0.96322,-3.823703 -0.96322,-1.415646 -2.58319,-1.415646 -1.59078,0 -2.554,1.415646 -0.94863,1.401051 -0.94863,3.809108 z m 18.67292,-6.231761 q -0.53999,-0.10216 -1.16754,-0.10216 -1.98482,0 -2.77292,2.174549 v 11.295978 h -2.58318 V 64.157659 h 2.51021 l 0.0438,1.605371 q 1.03619,-1.897257 2.93345,-1.897257 0.61296,0 1.0216,0.20432 z m 0.97005,4.757738 q 0,-3.692355 1.34267,-5.575018 1.34268,-1.897257 3.92587,-1.897257 2.40805,0 3.66316,2.057795 l 0.13135,-1.765909 h 2.33509 V 80.09462 q 0,2.933452 -1.50321,4.49504 -1.50322,1.576183 -4.18856,1.576183 -1.16755,0 -2.62698,-0.583771 -1.44483,-0.569177 -2.17455,-1.415646 l 1.05079,-1.780503 q 1.60537,1.576183 3.54642,1.576183 3.22533,0 3.3129,-3.517223 v -2.057795 q -1.25511,1.853475 -3.56101,1.853475 -2.45184,0 -3.8237,-1.83888 -1.37186,-1.853475 -1.43024,-5.312321 z m 2.58319,1.474023 q 0,2.65616 0.77349,3.911269 0.7881,1.240514 2.5686,1.240514 1.92645,0 2.88967,-1.970229 v -7.895509 q -1.00701,-1.94104 -2.86048,-1.94104 -1.78051,0 -2.5686,1.255109 -0.78809,1.240514 -0.80268,3.823703 z"
         id="path5" />
    </g>
  </g>
</svg>
